<svg id="SvgjsSvg1006" width="288" height="288" xmlns="http://www.w3.org/2000/svg" version="1.1" xmlns:xlink="http://www.w3.org/1999/xlink" xmlns:svgjs="http://svgjs.com/svgjs"><defs id="SvgjsDefs1007"></defs><g id="SvgjsG1008" transform="matrix(1,0,0,1,0,0)"><svg xmlns="http://www.w3.org/2000/svg" width="288" height="288" fill="none" viewBox="0 0 88 88"><rect width="63.625" height="63.625" x="12.358" y="13.777" fill="#fdd85b" stroke="#fdd85b" stroke-width=".375" opacity=".16" rx="5.441" class="colorEBF1FB svgShape colorStrokefff svgStroke"></rect><path fill="#fdd85b" d="M9.4245 79.8848C9.02597 79.8848 8.62744 79.7129 8.3502 79.4035 7.83037 78.8191 7.89968 77.9253 8.48882 77.4097L24.898 63.2465C25.4871 62.7308 26.3881 62.7996 26.9079 63.384 27.4278 63.9684 27.3585 64.8622 26.7693 65.3778L10.3602 79.541C10.1003 79.7817 9.75373 79.8848 9.4245 79.8848zM52.1367 52.7444H43.369C41.6536 52.7444 40.2674 51.3694 40.2674 49.6677V46.0238C40.2674 45.955 40.2674 45.955 40.2674 45.9035 40.2674 45.7144 40.2674 44.1331 38.4307 42.2251 35.6756 39.3719 34.2374 36.0373 34.2374 32.5481 34.2374 25.2087 40.2674 19.2271 47.6662 19.2271 55.0651 19.2271 61.095 25.2087 61.095 32.5481 61.095 36.1577 59.5529 39.5781 56.6419 42.4486 55.429 43.6518 55.325 44.8722 55.2384 46.041V49.6849C55.2557 51.3694 53.8522 52.7444 52.1367 52.7444zM43.1264 46.0753V49.6677C43.1264 49.8052 43.2477 49.9255 43.3863 49.9255H52.1541C52.2927 49.9255 52.414 49.8052 52.414 49.6677V46.0238C52.414 45.9894 52.414 45.955 52.414 45.9206V45.8347C52.5179 44.4596 52.6739 42.397 54.6492 40.4547 56.2953 38.8218 58.2533 36.1405 58.2533 32.5481 58.2533 26.7556 53.5056 22.046 47.6662 22.046 41.8269 22.046 37.0791 26.7556 37.0791 32.5481 37.0791 36.003 38.9332 38.65 40.4926 40.2657 43.1264 42.9986 43.1611 45.5081 43.1264 46.0753z" class="colorfff svgShape"></path><path fill="#fdd85b" d="M50.3867 56.8867H44.9632C43.3344 56.8867 42.0002 55.3742 42.0002 53.5178V51.524C42.0002 50.9052 42.5027 50.3895 43.1438 50.3895 43.7849 50.3895 44.2874 50.888 44.2874 51.524V53.5178C44.2874 54.1538 44.6513 54.6179 44.9632 54.6179H50.3867C50.6986 54.6179 51.0625 54.1366 51.0625 53.5178V51.524C51.0625 50.9052 51.565 50.3895 52.2061 50.3895 52.8472 50.3895 53.3497 50.888 53.3497 51.524V53.5178C53.3324 55.3742 52.0155 56.8867 50.3867 56.8867zM53.7308 47.2956H41.9308C41.359 47.2956 40.8912 46.8316 40.8912 46.2643 40.8912 45.6971 41.359 45.233 41.9308 45.233H53.7308C54.3026 45.233 54.7705 45.6971 54.7705 46.2643 54.7705 46.8316 54.3026 47.2956 53.7308 47.2956z" class="colorfff svgShape"></path><path fill="#fdd85b" d="M47.8569 47.0893C47.2851 47.0893 46.8172 46.6253 46.8172 46.058V34.8684C46.8172 34.3012 47.2851 33.8371 47.8569 33.8371C48.4287 33.8371 48.8965 34.3012 48.8965 34.8684V46.058C48.9139 46.6253 48.446 47.0893 47.8569 47.0893Z" class="colorfff svgShape"></path><path fill="#fdd85b" d="M50.716 35.6935H44.5128C43.941 35.6935 43.4731 35.2294 43.4731 34.6622C43.4731 34.095 43.941 33.6309 44.5128 33.6309H50.716C51.2878 33.6309 51.7557 34.095 51.7557 34.6622C51.773 35.2294 51.3052 35.6935 50.716 35.6935Z" class="colorfff svgShape"></path><path fill="#fdd85b" d="M47.1637 65.2747C31.517 65.2747 18.7986 52.6584 18.7986 37.1373C18.8159 21.6163 31.5343 9 47.1637 9C53.8868 9 60.4193 11.372 65.5309 15.7035C70.5905 19.9662 73.9867 25.879 75.113 32.3418C75.2516 33.1153 74.7318 33.8372 73.952 33.9747C73.1723 34.1122 72.4446 33.5965 72.3059 32.8231C71.3009 27.0134 68.234 21.7022 63.6942 17.852C59.0851 13.9674 53.2284 11.8361 47.1637 11.8361C33.0938 11.8361 21.6577 23.1804 21.6577 37.1373C21.6577 51.0943 33.0938 62.4386 47.1637 62.4386C52.6739 62.4386 57.9414 60.7198 62.3426 57.4712C62.9664 57.0071 63.8674 57.1446 64.3353 57.7634C64.8031 58.3822 64.6645 59.2759 64.0407 59.74C59.137 63.3496 53.2977 65.2747 47.1637 65.2747Z" class="colorfff svgShape"></path><path fill="#fdd85b" d="M74.108 57.1446H69.4815C68.9097 57.1446 68.4419 56.6805 68.4419 56.1133V51.3521H63.6421C63.0703 51.3521 62.6025 50.888 62.6025 50.3208V45.7315C62.6025 45.1643 63.0703 44.7002 63.6421 44.7002H68.4419V39.9391C68.4419 39.3718 68.9097 38.9078 69.4815 38.9078H74.108C74.6798 38.9078 75.1476 39.3718 75.1476 39.9391V44.7002H79.9473C80.5191 44.7002 80.987 45.1643 80.987 45.7315V50.3208C80.987 50.888 80.5191 51.3521 79.9473 51.3521H75.1476V56.1133C75.1649 56.6805 74.6971 57.1446 74.108 57.1446ZM70.5385 55.0648H73.0683V50.3036C73.0683 49.7364 73.5361 49.2723 74.108 49.2723H78.9077V46.7628H74.108C73.5361 46.7628 73.0683 46.2987 73.0683 45.7315V40.9704H70.5385V45.7315C70.5385 46.2987 70.0706 46.7628 69.4988 46.7628H64.6991V49.2723H69.4988C70.0706 49.2723 70.5385 49.7364 70.5385 50.3036V55.0648Z" class="colorfff svgShape"></path></svg></g></svg>