<svg id="SvgjsSvg1001" width="288" height="288" xmlns="http://www.w3.org/2000/svg" version="1.1" xmlns:xlink="http://www.w3.org/1999/xlink" xmlns:svgjs="http://svgjs.com/svgjs"><defs id="SvgjsDefs1002"></defs><g id="SvgjsG1008" transform="matrix(1,0,0,1,0,0)"><svg xmlns="http://www.w3.org/2000/svg" width="288" height="288" fill="none" viewBox="0 0 88 88"><path fill="#fdd85b" stroke="#ffffff" stroke-width=".375" d="M12.358 19.2181C12.358 16.2132 14.794 13.7772 17.7989 13.7772H70.5419C73.5468 13.7772 75.9828 16.2132 75.9828 19.2181V71.9611C75.9828 74.966 73.5468 77.402 70.5419 77.402H17.7989C14.794 77.402 12.358 74.966 12.358 71.9611V19.2181Z" opacity=".16" class="colorEBF1FB svgShape colorStrokefff svgStroke"></path><path fill="#fdd85b" d="M44.0985 15.2949C44.749 15.2949 45.2723 14.7717 45.2723 14.1212V6.17374C45.2723 5.52323 44.749 5 44.0985 5 43.448 5 42.9248 5.52323 42.9248 6.17374V14.1212C42.9248 14.7717 43.448 15.2949 44.0985 15.2949zM22.1228 23.7091C22.5895 24.1757 23.3249 24.1757 23.7915 23.7091 24.2582 23.2424 24.2582 22.507 23.7915 22.0404L18.1774 16.4262C17.7107 15.9596 16.9754 15.9596 16.5087 16.4262 16.042 16.8929 16.042 17.6283 16.5087 18.0949L22.1228 23.7091zM14.2037 42.8424H6.25626C5.60575 42.8424 5.08252 43.3657 5.08252 44.0162 5.08252 44.6667 5.60575 45.1899 6.25626 45.1899H14.2037C14.8542 45.1899 15.3775 44.6667 15.3775 44.0162 15.3775 43.3657 14.8542 42.8424 14.2037 42.8424zM22.1228 64.3374L16.5087 69.9515C16.042 70.4182 16.042 71.1535 16.5087 71.6202 16.9754 72.0868 17.7107 72.0868 18.1774 71.6202L23.7915 66.006C24.2582 65.5394 24.2582 64.804 23.7915 64.3374 23.339 63.8707 22.5895 63.8707 22.1228 64.3374zM66.0743 64.3374C65.6077 63.8707 64.8723 63.8707 64.4057 64.3374 63.939 64.804 63.939 65.5394 64.4057 66.006L70.0198 71.6202C70.4865 72.0868 71.2218 72.0868 71.6885 71.6202 72.1552 71.1535 72.1552 70.4182 71.6885 69.9515L66.0743 64.3374zM81.941 42.8424H73.9936C73.3431 42.8424 72.8198 43.3657 72.8198 44.0162 72.8198 44.6667 73.3431 45.1899 73.9936 45.1899H81.941C82.5915 45.1899 83.1148 44.6667 83.1148 44.0162 83.1289 43.3657 82.5915 42.8424 81.941 42.8424zM70.034 16.4262L64.4198 22.0404C63.9532 22.507 63.9532 23.2424 64.4198 23.709 64.8865 24.1757 65.6218 24.1757 66.0885 23.709L71.6885 18.0949C72.1552 17.6282 72.1552 16.8929 71.6885 16.4262 71.236 15.9737 70.4865 15.9737 70.034 16.4262zM52.8945 75.8626H38.1733C36.0238 75.8626 34.2844 74.1232 34.2844 71.9737V65.8222C34.2844 65.7798 34.2561 65.4545 34.143 64.7616 34.044 64.1818 34.4399 63.6303 35.0056 63.5454 35.5854 63.4464 36.1369 63.8424 36.2217 64.408 36.3773 65.3272 36.3914 65.6949 36.3914 65.7656 36.3914 65.7798 36.3914 65.7798 36.3914 65.7939V71.9596C36.3914 72.9353 37.1834 73.7272 38.1591 73.7272H52.8945C53.8702 73.7272 54.6622 72.9353 54.6622 71.9596V65.808C54.6622 65.7798 54.6622 65.7515 54.6622 65.7232L54.6763 65.5676C54.846 63.3192 55.0723 60.2505 58.0278 57.2808 60.0217 55.2868 61.5914 53.1091 62.6803 50.804 63.8824 48.2727 64.4904 45.6282 64.4904 42.9414 64.4904 41.202 64.2642 39.4909 63.7975 37.8363 63.2036 35.6727 62.2419 33.6505 60.9268 31.8262 59.343 29.6202 57.2783 27.7394 54.9308 26.3818 52.0318 24.7131 48.7228 23.8222 45.3712 23.8222 34.8217 23.8222 26.2379 32.406 26.2379 42.9555 26.2379 45.6989 26.8743 48.3858 28.1046 50.9596 28.3591 51.4828 28.1329 52.1192 27.6096 52.3737 27.0864 52.6282 26.45 52.402 26.1955 51.8787 24.8096 49.008 24.1167 46.0101 24.1167 42.9555 24.1167 31.2464 33.648 21.701 45.3712 21.701 49.1046 21.701 52.7813 22.6909 56.0056 24.5434 58.6076 26.0565 60.9127 28.1495 62.6662 30.5959 64.1228 32.6323 65.1975 34.8666 65.8621 37.2707 66.3712 39.1091 66.6258 41.0181 66.6258 42.9414 66.6258 45.9535 65.947 48.9091 64.6177 51.7232 63.4157 54.2545 61.7187 56.6303 59.5409 58.7798 57.1369 61.1838 56.9531 63.6868 56.7975 65.709L56.7834 65.8363V71.9737C56.7834 74.1232 55.044 75.8626 52.8945 75.8626z" class="colorfff svgShape"></path><path fill="#fdd85b" d="M49.939 82H40.8178C38.5552 82 36.7026 80.1475 36.7026 77.8707V75.1414C36.7026 74.5616 37.1834 74.0808 37.7632 74.0808 38.343 74.0808 38.8238 74.5616 38.8238 75.1414V77.8707C38.8238 78.9737 39.7148 79.8788 40.8178 79.8788H49.939C51.042 79.8788 51.9329 78.9737 51.9329 77.8707V75.1414C51.9329 74.5616 52.4137 74.0808 52.9935 74.0808 53.5733 74.0808 54.0541 74.5616 54.0541 75.1414V77.8707C54.0541 80.1475 52.2158 82 49.939 82zM55.5674 65.6808H35.2603C34.6805 65.6808 34.1997 65.2 34.1997 64.6202 34.1997 64.0404 34.6805 63.5596 35.2603 63.5596H55.5674C56.1472 63.5596 56.628 64.0404 56.628 64.6202 56.628 65.2 56.1613 65.6808 55.5674 65.6808zM45.7814 70.7717H35.345C34.7652 70.7717 34.2844 70.2909 34.2844 69.7111 34.2844 69.1313 34.7652 68.6505 35.345 68.6505H45.7814C46.3612 68.6505 46.842 69.1313 46.842 69.7111 46.842 70.2909 46.3612 70.7717 45.7814 70.7717zM55.4118 70.7717H50.3067C49.7269 70.7717 49.2461 70.2909 49.2461 69.7111 49.2461 69.1313 49.7269 68.6505 50.3067 68.6505H55.4118C55.9915 68.6505 56.4724 69.1313 56.4724 69.7111 56.4724 70.2909 55.9915 70.7717 55.4118 70.7717zM43.0239 53.0242C42.4583 53.0242 41.9209 52.798 41.525 52.402L35.529 46.406C35.034 45.9111 34.7512 45.2323 34.7512 44.5252 34.7512 43.8182 35.034 43.1535 35.529 42.6444L36.2785 41.8949C37.3108 40.8626 38.9936 40.8626 40.026 41.8949L43.0239 44.8929 52.3856 35.5313C52.8805 35.0364 53.5593 34.7535 54.2664 34.7535 54.9734 34.7535 55.6381 35.0364 56.1472 35.5313L56.8967 36.2808C57.3916 36.7757 57.6744 37.4545 57.6744 38.1616 57.6744 38.8687 57.3916 39.5333 56.8967 40.0424L44.5371 52.402C44.1411 52.798 43.5896 53.0242 43.0239 53.0242zM43.0239 50.903L55.3835 38.5434C55.525 38.402 55.5391 38.2465 55.5391 38.1616 55.5391 38.0768 55.525 37.9212 55.3835 37.7798L54.634 37.0303C54.4926 36.8889 54.3371 36.8747 54.2522 36.8747 54.1674 36.8747 54.0118 36.8889 53.8704 37.0303L43.7734 47.1414C43.3633 47.5515 42.6846 47.5515 42.2745 47.1414L38.527 43.3939C38.3149 43.1818 37.9896 43.1818 37.7775 43.3939L37.028 44.1434C36.8866 44.2848 36.8724 44.4404 36.8724 44.5252 36.8724 44.6101 36.8866 44.7656 37.028 44.9071L43.0239 50.903z" class="colorfff svgShape"></path></svg></g></svg>