<svg id="SvgjsSvg1001" width="288" height="288" xmlns="http://www.w3.org/2000/svg" version="1.1" xmlns:xlink="http://www.w3.org/1999/xlink" xmlns:svgjs="http://svgjs.com/svgjs"><defs id="SvgjsDefs1002"></defs><g id="SvgjsG1008" transform="matrix(1,0,0,1,0,0)"><svg xmlns="http://www.w3.org/2000/svg" width="288" height="288" fill="none" viewBox="0 0 88 88"><rect width="63.625" height="63.625" x="12.358" y="13.777" fill="#fdd85b" stroke="#ffffff" stroke-width=".375" opacity=".16" rx="5.441" class="colorEBF1FB svgShape colorStrokefff svgStroke"></rect><path fill="#fdd85b" d="M26.2294 57.949C25.9351 57.949 25.6407 57.8835 25.3628 57.7691C24.8395 57.5402 24.4471 57.115 24.2345 56.5918L22.8937 53.1089C22.4685 52.0133 23.0081 50.787 24.1037 50.3618L28.0608 48.8248C28.584 48.6122 29.1727 48.6285 29.6796 48.8575C30.2028 49.0864 30.5953 49.5115 30.8078 50.0348L32.1487 53.5177C32.3612 54.0409 32.3449 54.6296 32.116 55.1365C31.8871 55.6597 31.4619 56.0522 30.9387 56.2647L26.9816 57.8018C26.7526 57.8999 26.491 57.949 26.2294 57.949ZM28.8293 50.6398C28.8129 50.6398 28.7966 50.6398 28.7639 50.6561L24.8068 52.1932C24.7577 52.2095 24.725 52.2586 24.7087 52.2749C24.6923 52.2913 24.6923 52.3404 24.7087 52.4058L26.0495 55.8887C26.0659 55.9377 26.1149 55.9704 26.1313 55.9868C26.1476 56.0031 26.1967 56.0031 26.2621 55.9868L30.2192 54.4497C30.2682 54.4334 30.3009 54.3843 30.3173 54.368C30.3336 54.3353 30.3336 54.3025 30.3173 54.2371L28.9765 50.7542C28.9601 50.7052 28.9111 50.6725 28.8947 50.6561C28.8947 50.6561 28.862 50.6398 28.8293 50.6398Z" class="colorfff svgShape"></path><path fill="#fdd85b" d="M30.1865 84.8474C29.6142 84.8474 29.0419 84.7329 28.5023 84.4876C27.4885 84.0298 26.7036 83.2122 26.2948 82.1821L4.28553 25.2621C3.87674 24.2156 3.90944 23.0873 4.36728 22.0735C4.82513 21.0597 5.64271 20.2748 6.67286 19.8661L49.5468 3.28553C50.5933 2.87674 51.7215 2.90944 52.7353 3.36728C53.7491 3.82513 54.534 4.64271 54.9428 5.67286L61.4998 22.6131C61.7451 23.2508 61.4344 23.954 60.7967 24.1992C60.159 24.4445 59.4559 24.1338 59.2106 23.4961L52.6372 6.55585C52.4737 6.13071 52.1467 5.78732 51.7379 5.60745C51.3128 5.42759 50.8549 5.41124 50.4298 5.57475L7.55585 22.1553C7.13071 22.3188 6.78732 22.6458 6.60745 23.0546C6.42759 23.4798 6.41124 23.9376 6.57475 24.3628L28.584 81.2664C28.7475 81.6915 29.0746 82.0349 29.4834 82.2148C29.9085 82.3946 30.3663 82.411 30.7915 82.2475L42.9407 77.5382C43.5784 77.2929 44.2816 77.6036 44.5268 78.2413C44.7721 78.879 44.4614 79.5821 43.8237 79.8274L31.6745 84.5367C31.2166 84.7493 30.6934 84.8474 30.1865 84.8474Z" class="colorfff svgShape"></path><path fill="#fdd85b" d="M28.0771 26.1778C27.5866 26.1778 27.1287 25.8834 26.9325 25.3929 26.6872 24.7552 26.9979 24.0521 27.6356 23.8068L46.4727 16.514C47.1104 16.2687 47.8135 16.5794 48.0588 17.2171 48.3041 17.8548 47.9934 18.5579 47.3557 18.8032L28.5186 26.096C28.3714 26.1451 28.2243 26.1778 28.0771 26.1778zM32.7046 38.1308C32.2141 38.1308 31.7562 37.8365 31.56 37.3459 31.3147 36.7082 31.6254 36.0051 32.2631 35.7598L51.1002 28.4834C51.7379 28.2381 52.441 28.5488 52.6863 29.1865 52.9316 29.8242 52.6209 30.5273 51.9832 30.7726L33.1461 38.0654C32.999 38.1144 32.8518 38.1308 32.7046 38.1308zM37.7082 51.0813C37.2177 51.0813 36.7435 50.7706 36.5636 50.2801 36.3347 49.6423 36.6454 48.9392 37.2831 48.7103L46.3419 45.3582C46.9796 45.1293 47.6827 45.44 47.9116 46.0777 48.1406 46.7154 47.8299 47.4185 47.1922 47.6474L38.1334 50.9995C37.9862 51.0486 37.839 51.0813 37.7082 51.0813zM31.1022 70.556C30.8078 70.556 30.5135 70.4906 30.2355 70.3762 29.7123 70.1473 29.3198 69.7221 29.1073 69.1989L27.7664 65.716C27.3413 64.6204 27.8809 63.394 28.9765 62.9689L32.9335 61.4318C33.4568 61.2193 34.0455 61.2356 34.5524 61.4646 35.0756 61.6935 35.468 62.1186 35.6806 62.6419L37.0214 66.1248C37.4466 67.2203 36.907 68.4467 35.8114 68.8718L31.8543 70.4089C31.6254 70.507 31.3638 70.556 31.1022 70.556zM33.7184 63.2632C33.7021 63.2632 33.6857 63.2632 33.653 63.2796L29.6959 64.8166C29.6142 64.8493 29.5651 64.9474 29.5978 65.0292L30.9386 68.5121C30.955 68.5611 31.0041 68.5939 31.0204 68.6102 31.0531 68.6266 31.0858 68.6266 31.1512 68.6102L35.1083 67.0732C35.1901 67.0405 35.2391 66.9423 35.2064 66.8606L33.8656 63.3777C33.8492 63.3286 33.8002 63.2959 33.7838 63.2796 33.7675 63.2632 33.7511 63.2632 33.7184 63.2632zM42.581 63.6884C42.0741 63.6884 41.5999 63.3777 41.42 62.8708 41.1911 62.2331 41.5345 61.53 42.1722 61.301L45.1809 60.2545C45.8186 60.0256 46.5217 60.369 46.7507 61.0067 46.9796 61.6444 46.6362 62.3475 45.9985 62.5765L42.9898 63.623C42.859 63.672 42.7118 63.6884 42.581 63.6884zM19.656 23.9376C19.7378 23.9376 19.8359 23.954 19.9177 23.9867L20.3265 24.1665C20.6698 24.3137 20.817 24.7061 20.6698 25.0495L17.7265 31.721C17.6775 31.8354 17.5957 31.9172 17.4813 31.9499 17.4322 31.9662 17.3832 31.9826 17.3178 31.9826 17.2524 31.9826 17.2033 31.9662 17.1379 31.9499L13.9003 30.5273C13.5569 30.3801 13.4097 29.9877 13.5569 29.6443L13.7368 29.2355C13.8512 28.9903 14.0965 28.8431 14.3418 28.8431 14.4235 28.8431 14.5216 28.8594 14.6034 28.8921L16.6146 29.7915 19.051 24.33C19.1655 24.0848 19.4108 23.9376 19.656 23.9376zM19.656 22.1389C18.6749 22.1389 17.792 22.7112 17.3995 23.6106L15.7153 27.4205 15.3392 27.257C15.0285 27.1098 14.6851 27.0444 14.3418 27.0444 13.3607 27.0444 12.4777 27.6167 12.0852 28.5161L11.9054 28.9248C11.6437 29.5299 11.6274 30.2003 11.8563 30.8053 12.1016 31.4266 12.5594 31.9008 13.1644 32.1625L16.4021 33.5851C16.68 33.7159 16.9907 33.7813 17.3014 33.7813 17.5794 33.7813 17.8574 33.7322 18.1026 33.6341 18.6586 33.4215 19.1001 32.98 19.3454 32.4404L22.2886 25.769C22.5503 25.164 22.5666 24.4936 22.3377 23.8886 22.0924 23.2672 21.6346 22.793 21.0296 22.5314L20.6208 22.3515C20.3428 22.2043 19.9994 22.1389 19.656 22.1389zM24.071 35.3347C24.1527 35.3347 24.2508 35.351 24.3326 35.3837L24.7414 35.5636C25.0848 35.7108 25.2319 36.1032 25.0848 36.4466L22.1415 43.118C22.0924 43.2325 22.0107 43.3143 21.8962 43.347 21.8472 43.3633 21.7981 43.3797 21.7327 43.3797 21.6673 43.3797 21.6182 43.3633 21.5528 43.347L18.3152 41.9244C17.9718 41.7772 17.8247 41.3848 17.9718 41.0414L18.1517 40.6326C18.2662 40.3873 18.5114 40.2402 18.7567 40.2402 18.8385 40.2402 18.9366 40.2565 19.0183 40.2892L21.0296 41.1886 23.4333 35.7271C23.5641 35.4818 23.8093 35.3347 24.071 35.3347zM24.071 33.536C23.0899 33.536 22.2069 34.1083 21.8145 35.0076L20.1302 38.8176 19.7541 38.6541C19.4435 38.5069 19.1001 38.4415 18.7567 38.4415 17.7756 38.4415 16.8926 39.0138 16.5002 39.9131L16.3203 40.3219C16.0587 40.9269 16.0423 41.5973 16.2713 42.2024 16.5165 42.8237 16.9744 43.2979 17.5794 43.5595L20.817 44.9821C21.095 45.1129 21.4057 45.1783 21.7163 45.1783 21.9943 45.1783 22.2723 45.1293 22.5176 45.0312 23.0735 44.8186 23.515 44.3771 23.7603 43.8375L26.7036 37.1661C26.9652 36.561 26.9816 35.8906 26.7526 35.2856 26.5074 34.6643 26.0495 34.1901 25.4445 33.9284L25.0357 33.7486C24.7414 33.6014 24.4144 33.536 24.071 33.536zM56.6433 79.4677C56.4471 79.4677 56.2346 79.4186 56.0383 79.3042 55.4497 78.9771 55.2371 78.225 55.5641 77.6363L61.6142 66.8769C61.9413 66.2883 62.6934 66.0757 63.2821 66.4027 63.8708 66.7298 64.0833 67.4819 63.7563 68.0706L57.7062 78.83C57.4936 79.2551 57.0685 79.4677 56.6433 79.4677zM68.8744 65.2745C63.4947 65.2745 58.2131 62.6582 55.0573 57.8345 50.07 50.231 52.1957 39.9785 59.7992 34.9913 66.5361 30.5764 75.415 31.6392 80.9092 37.5258 81.367 38.0163 81.3507 38.8012 80.8438 39.2591 80.3532 39.7169 79.5683 39.7006 79.1105 39.1937 74.4339 34.1901 66.8795 33.2744 61.1401 37.0516 54.6648 41.303 52.8498 50.0184 57.1012 56.4937 61.3526 62.9689 70.0681 64.7839 76.5433 60.5325 79.0778 58.8646 80.9746 56.4773 82.0211 53.6321 82.25 52.9944 82.9531 52.6674 83.5908 52.8963 84.2285 53.1252 84.5556 53.8284 84.3267 54.4661 83.1003 57.8018 80.8765 60.6143 77.8841 62.5601 75.1207 64.3915 71.9812 65.2745 68.8744 65.2745z" class="colorfff svgShape"></path><path fill="#fdd85b" d="M67.4191 60.2872C67.3536 60.2872 67.3046 60.2872 67.2392 60.2709C65.5223 59.9929 63.9362 59.3388 62.5136 58.3741C59.9137 56.5754 58.115 53.7629 57.5917 50.6561C57.4936 50.0838 57.8861 49.5279 58.4584 49.4298C59.0307 49.3316 59.5866 49.7241 59.6847 50.2964C60.1099 52.8472 61.5815 55.1528 63.7236 56.6245C64.8846 57.4257 66.1927 57.9489 67.5989 58.1779C68.1712 58.276 68.5637 58.8156 68.4819 59.4042C68.3674 59.9111 67.926 60.2872 67.4191 60.2872Z" class="colorfff svgShape"></path></svg></g></svg>