<?xml version="1.0" ?><svg viewBox="0 0 24 24" xmlns="http://www.w3.org/2000/svg"><title/><g data-name="Layer 2" id="Layer_2"><path d="M19,8a3,3,0,1,0-3-3,3,3,0,0,0,.3,1.29L14,8.57a3.88,3.88,0,0,0-4,0L8.7,7.29A3,3,0,0,0,9,6,3,3,0,1,0,6,9a3,3,0,0,0,1.29-.3L8.57,10a3.88,3.88,0,0,0,0,4L6.29,16.3A3,3,0,0,0,5,16a3,3,0,1,0,3,3,3,3,0,0,0-.3-1.29L10,15.43a3.88,3.88,0,0,0,4,0l1.28,1.28A3,3,0,0,0,15,18a3,3,0,1,0,3-3,3,3,0,0,0-1.29.3L15.43,14a3.88,3.88,0,0,0,0-4L17.71,7.7A3,3,0,0,0,19,8ZM6,7A1,1,0,1,1,7,6,1,1,0,0,1,6,7ZM18,17a1,1,0,1,1-1,1A1,1,0,0,1,18,17Z"/></g></svg>