<?xml version="1.0" ?><!DOCTYPE svg  PUBLIC '-//W3C//DTD SVG 1.1//EN'  'http://www.w3.org/Graphics/SVG/1.1/DTD/svg11.dtd'><svg height="512px" style="enable-background:new 0 0 512 512;" version="1.1" viewBox="0 0 512 512" width="512px" xml:space="preserve" xmlns="http://www.w3.org/2000/svg" xmlns:xlink="http://www.w3.org/1999/xlink"><g id="D_-_50_x2C__location_x2C__map_x2C__pointer_x2C__travel"><g><path d="M234.95,161.558l0.696-3.439c1.064-5.796,1.611-11.817,1.611-17.811c0-54.255-44.139-98.395-98.395-98.395    c-54.255,0-98.396,44.14-98.396,98.395c0,5.994,0.548,12.015,1.628,17.896l0.697,3.432    c4.381,19.903,67.643,103.541,96.071,139.778C167.291,265.175,230.553,181.535,234.95,161.558z M92.008,135.622    c0-25.836,21.019-46.855,46.855-46.855c25.836,0,46.854,21.019,46.854,46.855s-21.019,46.855-46.854,46.855    C113.027,182.477,92.008,161.458,92.008,135.622z"/><path d="M373.137,210.589c-54.256,0-98.395,44.14-98.395,98.395c0,5.994,0.547,12.015,1.628,17.896l0.695,3.433    c4.383,19.905,67.644,103.541,96.071,139.776c28.428-36.236,91.69-119.877,96.088-139.854l0.695-3.438    c1.064-5.798,1.612-11.818,1.612-17.813C471.532,254.729,427.393,210.589,373.137,210.589z M373.137,351.153    c-25.836,0-46.854-21.019-46.854-46.854s21.019-46.854,46.854-46.854s46.855,21.019,46.855,46.854    S398.973,351.153,373.137,351.153z"/><path d="M373.137,266.815c-20.668,0-37.483,16.815-37.483,37.483s16.815,37.484,37.483,37.484s37.484-16.816,37.484-37.484    S393.805,266.815,373.137,266.815z"/><path d="M176.347,135.622c0-20.669-16.814-37.484-37.483-37.484c-20.668,0-37.484,16.815-37.484,37.484    c0,20.668,16.816,37.484,37.484,37.484C159.532,173.105,176.347,156.29,176.347,135.622z"/><path d="M406.873,140.923l-20.829-13.885c-2.153-1.437-5.063-0.854-6.497,1.299c-1.436,2.153-0.854,5.062,1.299,6.498    l28.041,18.693c0.006,0.004,0.011,0.007,0.016,0.011l0.031,0.02c0.004,0.003,0.007,0.004,0.01,0.007l0.016,0.01    c0.028,0.018,0.059,0.031,0.087,0.049c0.147,0.093,0.298,0.178,0.453,0.254c0.056,0.027,0.111,0.054,0.169,0.079    c0.043,0.019,0.087,0.039,0.131,0.057c0.094,0.038,0.189,0.07,0.284,0.102c0.082,0.028,0.163,0.054,0.247,0.076    c0.072,0.02,0.145,0.039,0.218,0.054c0.055,0.013,0.11,0.021,0.165,0.031c0.078,0.014,0.154,0.031,0.23,0.041    c0.187,0.025,0.374,0.039,0.563,0.041c0.016,0.001,0.031,0.003,0.047,0.003c0.002,0,0.004,0,0.006,0c0.001,0,0.002,0,0.004,0    c0.016,0,0.032-0.002,0.048-0.003c0.188-0.002,0.376-0.016,0.562-0.041c0.077-0.01,0.152-0.027,0.23-0.041    c0.055-0.01,0.111-0.018,0.166-0.031c0.073-0.015,0.146-0.034,0.219-0.054c0.082-0.022,0.164-0.048,0.245-0.076    c0.097-0.032,0.191-0.064,0.286-0.103c0.043-0.017,0.086-0.037,0.131-0.056c0.055-0.025,0.111-0.05,0.167-0.078    c0.157-0.077,0.31-0.164,0.46-0.259c0.025-0.017,0.055-0.028,0.08-0.045l0.016-0.01c0.004-0.003,0.007-0.004,0.01-0.007    l0.027-0.018c0.008-0.005,0.016-0.01,0.023-0.015l28.037-18.692c2.154-1.436,2.735-4.345,1.3-6.498    c-1.437-2.153-4.343-2.736-6.497-1.299l-20.828,13.885V74.71c0-2.588-2.098-4.686-4.686-4.686H261.623    c-2.588,0-4.686,2.098-4.686,4.686c0,2.587,2.098,4.686,4.686,4.686h145.25V140.923z"/><path d="M252.251,435.492h-145.25v-61.527l20.828,13.886c0.799,0.532,1.702,0.788,2.595,0.788c1.514,0,3-0.733,3.902-2.088    c1.436-2.153,0.854-5.063-1.299-6.497l-28.088-18.726c-0.003-0.002-0.006-0.004-0.009-0.007l-0.016-0.01    c-0.001-0.001-0.002-0.002-0.004-0.003c-0.122-0.08-0.254-0.137-0.382-0.205c-0.139-0.074-0.27-0.159-0.415-0.219    c-0.009-0.004-0.016-0.009-0.024-0.012c-0.14-0.058-0.285-0.086-0.427-0.129c-0.139-0.042-0.274-0.097-0.419-0.126    c-0.006-0.002-0.014-0.002-0.02-0.004c-0.176-0.035-0.351-0.039-0.528-0.054c-0.123-0.01-0.244-0.034-0.367-0.035    c-0.003,0-0.007-0.001-0.011-0.001c-0.003,0-0.005,0.001-0.007,0.001c-0.162,0-0.321,0.028-0.482,0.046    c-0.136,0.015-0.274,0.016-0.409,0.042c-0.011,0.002-0.021,0.003-0.031,0.005c-0.118,0.023-0.227,0.07-0.341,0.104    c-0.081,0.022-0.162,0.045-0.241,0.072c-0.084,0.029-0.172,0.043-0.256,0.076c-0.011,0.005-0.021,0.011-0.033,0.015    c-0.127,0.054-0.241,0.129-0.361,0.191c-0.146,0.076-0.296,0.143-0.436,0.234l-0.001,0.001l-0.016,0.01    c-0.003,0.003-0.006,0.005-0.01,0.007l-28.088,18.726c-2.153,1.435-2.734,4.344-1.3,6.497c0.903,1.354,2.389,2.088,3.903,2.088    c0.893,0,1.795-0.256,2.594-0.788l20.829-13.886v66.213c0,2.588,2.098,4.686,4.686,4.686h149.935c2.588,0,4.686-2.098,4.686-4.686    S254.84,435.492,252.251,435.492z"/><rect height="18.742" width="18.742" x="177.284" y="308.984"/><rect height="18.742" width="18.742" x="214.768" y="308.984"/></g></g><g id="Layer_1"/></svg>