<?xml version="1.0" ?><!DOCTYPE svg  PUBLIC '-//W3C//DTD SVG 1.1//EN'  'http://www.w3.org/Graphics/SVG/1.1/DTD/svg11.dtd'><svg height="512px" style="enable-background:new 0 0 512 512;" version="1.1" viewBox="0 0 512 512" width="512px" xml:space="preserve" xmlns="http://www.w3.org/2000/svg" xmlns:xlink="http://www.w3.org/1999/xlink"><g id="C_-_90_x2C__security_x2C__Employee_x2C__insurance_x2C__person_x2C__personal_x2C__protection_x2C__shield"><g><path d="M389.768,300.534c-7.195-3.828-15.35-8.168-24.037-12.845c-1.717-0.926-3.828-0.69-5.299,0.592l-68.861,59.974    l-68.74-59.967c-1.471-1.284-3.583-1.52-5.3-0.596c-11.812,6.355-22.405,11.922-31.751,16.833    c-16.345,8.589-29.306,15.402-39.618,21.61c-88.363-37.265-116.384-94.915-93.359-192.123l94.844-42.911l53.657,25.626    c-1.19,5.644-1.819,11.477-1.819,17.447c0,44.155,32.108,126.522,93.489,126.522c61.38,0,93.489-82.367,93.489-126.522    c0-48.918-41.94-88.717-93.489-88.717c-41.772,0-77.23,26.133-89.18,62.074l-54.074-25.826c-1.247-0.596-2.693-0.609-3.951-0.041    L46.85,126.42c-1.313,0.595-2.28,1.761-2.622,3.162c-13.347,54.857-10.881,98.096,7.538,132.186    c15.852,29.34,42.94,51.869,84.872,70.468c-9.255,6.378-15.726,12.511-20.29,19.845c-10.285,16.527-10.049,37.6-9.578,79.581    c0.101,8.926,0.214,19.042,0.236,30.203c0.005,2.585,2.102,4.677,4.686,4.677H471.43c1.246,0,2.441-0.497,3.321-1.381    c0.88-0.883,1.371-2.081,1.364-3.327c-0.056-11.259,0-21.44,0.047-30.423C476.611,347.541,475.803,346.317,389.768,300.534z     M377.091,134.176c0,23.027-8.759,52.436-22.313,74.921c-11.615,19.266-31.766,42.23-61.805,42.23h-0.001    c30.04-0.001,50.188-22.965,61.804-42.23c13.555-22.485,22.313-51.894,22.313-74.921c0-43.751-37.734-79.345-84.118-79.346h0.002    C339.355,54.83,377.091,90.424,377.091,134.176z M300.611,435.017h-18.098v-17.915h18.098V435.017z M282.358,399.226v-17.915    h18.099v17.915H282.358z M288.487,358.001c0.882,0.769,1.979,1.153,3.077,1.153c-1.099,0-2.197-0.384-3.079-1.153L219.11,297.48    c0-0.001,0.001-0.001,0.001-0.001L288.487,358.001z M466.791,431.36c-0.041,7.737-0.087,16.362-0.064,25.81h-0.001    c-0.022-9.447,0.022-18.072,0.063-25.81c0.213-39.913,0.32-59.948-9.382-74.6c-9.832-14.848-30.623-25.912-72.044-47.954    c-6.411-3.411-13.582-7.228-21.221-11.33l0.001-0.001c7.639,4.104,14.811,7.92,21.222,11.331    c41.421,22.042,62.212,33.106,72.044,47.954C467.111,371.412,467.004,391.447,466.791,431.36z"/><path d="M139.048,144.093c2.357-1.067,3.404-3.843,2.337-6.201s-3.843-3.404-6.2-2.337l-55.483,25.106    c-1.313,0.595-2.28,1.761-2.621,3.162c-7.612,31.284-6.167,56.015,4.417,75.604c9.557,17.689,26.951,31.56,53.177,42.402    c0.586,0.241,1.192,0.355,1.789,0.355c1.84,0,3.585-1.091,4.332-2.896c0.989-2.391-0.148-5.131-2.54-6.12    C89.17,252.876,73.351,221.426,85.66,168.25L139.048,144.093z"/></g></g><g id="Layer_1"/></svg>