<?xml version="1.0" ?><!DOCTYPE svg  PUBLIC '-//W3C//DTD SVG 1.1//EN'  'http://www.w3.org/Graphics/SVG/1.1/DTD/svg11.dtd'><svg height="512px" style="enable-background:new 0 0 512 512;" version="1.1" viewBox="0 0 512 512" width="512px" xml:space="preserve" xmlns="http://www.w3.org/2000/svg" xmlns:xlink="http://www.w3.org/1999/xlink"><g id="C_-_56_x2C__skills_x2C__Graphs_x2C__people_x2C__profile_x2C__settings_x2C__statistics_x2C__team"><g><path d="M453.572,54.67H140.824c-5.111-10.564-15.971-17.872-28.513-17.872c-17.44,0-31.628,14.129-31.628,31.497    c0,17.369,14.188,31.5,31.628,31.5c17.439,0,31.628-14.131,31.628-31.5c0-1.443-0.106-2.862-0.297-4.254h305.244v44.26H111.5    c-0.071,0-0.138,0.018-0.208,0.021H85.358c-17.433,0-31.616,14.127-31.616,31.492v26.804c0,2.588,2.098,4.686,4.685,4.686h107.719    c2.588,0,4.685-2.098,4.685-4.686v-26.841c0-8.61-3.493-16.419-9.137-22.105h291.878c2.588,0,4.686-2.098,4.686-4.686V59.355    C458.258,56.768,456.16,54.67,453.572,54.67z"/><path d="M417.648,153.424c2.588,0,4.686-2.098,4.686-4.686s-2.098-4.686-4.686-4.686h-197.57c-2.587,0-4.686,2.098-4.686,4.686    s2.099,4.686,4.686,4.686H417.648z"/><rect height="17.85" width="17.935" x="175.123" y="77.261"/><rect height="17.85" width="17.935" x="211.07" y="77.261"/><rect height="17.85" width="17.936" x="247.02" y="77.261"/><rect height="17.85" width="17.934" x="282.967" y="77.261"/><path d="M453.572,206.624H140.827c-5.11-10.569-15.972-17.88-28.516-17.88c-17.44,0-31.628,14.131-31.628,31.501    c0,17.369,14.188,31.501,31.628,31.501c17.439,0,31.628-14.132,31.628-31.501c0-1.442-0.106-2.86-0.296-4.25h305.243v44.257    H132.41c-0.084,0-0.162,0.02-0.245,0.024H85.358c-17.433,0-31.616,14.124-31.616,31.486v26.802c0,2.588,2.098,4.685,4.685,4.685    h107.719c2.588,0,4.685-2.097,4.685-4.685v-26.838c0-8.609-3.494-16.419-9.14-22.104h291.881c2.588,0,4.686-2.098,4.686-4.686    V211.31C458.258,208.722,456.16,206.624,453.572,206.624z"/><path d="M417.648,305.378c2.588,0,4.686-2.098,4.686-4.686s-2.098-4.686-4.686-4.686h-197.57c-2.587,0-4.686,2.098-4.686,4.686    s2.099,4.686,4.686,4.686H417.648z"/><rect height="17.851" width="17.935" x="175.123" y="229.21"/><rect height="17.851" width="17.935" x="211.07" y="229.21"/><rect height="17.851" width="17.936" x="247.02" y="229.21"/><rect height="17.851" width="17.934" x="282.967" y="229.21"/><path d="M453.572,358.57H140.825c-5.11-10.566-15.971-17.877-28.514-17.877c-17.44,0-31.628,14.132-31.628,31.501    c0,17.368,14.188,31.498,31.628,31.498c17.439,0,31.628-14.13,31.628-31.498c0-1.443-0.106-2.861-0.297-4.254h305.244v44.261    H132.41c-0.071,0-0.138,0.019-0.208,0.021H85.358c-17.433,0-31.616,14.127-31.616,31.491v26.804c0,2.588,2.098,4.686,4.685,4.686    h107.719c2.588,0,4.685-2.098,4.685-4.686v-26.84c0-8.61-3.493-16.42-9.137-22.105h291.878c2.588,0,4.686-2.098,4.686-4.686    v-53.631C458.258,360.667,456.16,358.57,453.572,358.57z"/><path d="M417.648,447.953h-197.57c-2.587,0-4.686,2.098-4.686,4.686s2.099,4.686,4.686,4.686h197.57    c2.588,0,4.686-2.098,4.686-4.686S420.236,447.953,417.648,447.953z"/><rect height="17.85" width="17.935" x="175.123" y="381.157"/><rect height="17.85" width="17.935" x="211.07" y="381.157"/><rect height="17.85" width="17.936" x="247.02" y="381.157"/><rect height="17.85" width="17.934" x="282.967" y="381.157"/></g></g><g id="Layer_1"/></svg>