<?xml version="1.0" ?><!DOCTYPE svg  PUBLIC '-//W3C//DTD SVG 1.1//EN'  'http://www.w3.org/Graphics/SVG/1.1/DTD/svg11.dtd'><svg height="512px" style="enable-background:new 0 0 512 512;" version="1.1" viewBox="0 0 512 512" width="512px" xml:space="preserve" xmlns="http://www.w3.org/2000/svg" xmlns:xlink="http://www.w3.org/1999/xlink"><g id="C_-_15_x2C__Exchange_x2C__Coins_x2C__currency_x2C__dollar_x2C__euro_x2C__finance_x2C__financial_x2C__money"><g><path d="M161.704,233.302c39.43,0,71.507-31.919,71.507-71.151c0-39.23-32.077-71.145-71.507-71.145    c-39.429,0-71.507,31.915-71.507,71.145C90.196,201.383,122.274,233.302,161.704,233.302z M138.156,154.534    c-3.953-4.924-5.927-10.867-5.927-17.879c0-7.1,2.24-13.063,6.701-17.879c4.466-4.829,10.393-7.602,17.807-8.335v-6.388h9.457    v6.388c6.929,0.821,12.435,3.17,16.543,7.054c4.082,3.878,6.701,9.073,7.833,15.566l-16.516,2.131    c-1.023-5.098-3.64-8.561-7.86-10.378v25.348c10.458,2.794,17.584,6.452,21.359,10.911c3.796,4.48,5.681,10.227,5.681,17.24    c0,7.825-2.375,14.408-7.147,19.777c-4.772,5.368-11.39,8.698-19.893,10.031v12.103h-9.457v-11.973    c-7.458-0.909-13.52-3.658-18.205-8.292c-4.685-4.641-7.659-11.201-8.971-19.653l16.919-1.992c0.688,3.455,1.999,6.43,3.91,8.931    c1.907,2.51,4.016,4.308,6.347,5.434v-27.167C148.278,163.096,142.085,159.438,138.156,154.534z"/><path d="M156.737,124.545c-2.554,0.909-4.549,2.4-6.036,4.48c-1.491,2.086-2.222,4.372-2.222,6.881    c0,2.283,0.665,4.408,2.021,6.386c1.353,1.949,3.439,3.542,6.237,4.743V124.545z"/><path d="M350.155,278.563c-39.429,0-71.508,31.919-71.508,71.151c0,39.229,32.079,71.145,71.508,71.145    c39.428,0,71.505-31.915,71.505-71.145C421.66,310.481,389.583,278.563,350.155,278.563z M385.355,386.065    c-6.83,5.504-15.898,8.413-26.223,8.413c-18.27,0-34.019-10.914-41.043-26.535H300.9c-2.588,0-4.686-2.098-4.686-4.686    s2.098-4.686,4.686-4.686h14.165c-0.58-2.864-0.888-5.826-0.888-8.858c0-2.936,0.294-5.803,0.838-8.582H300.9    c-2.588,0-4.686-2.098-4.686-4.686s2.098-4.686,4.686-4.686h17.063c6.961-15.772,22.791-26.819,41.17-26.819    c9.163,0,17.98,2.729,25.498,7.895c2.133,1.465,2.674,4.382,1.209,6.515c-1.463,2.133-4.38,2.677-6.515,1.209    c-5.95-4.087-12.933-6.247-20.192-6.247c-13.038,0-24.453,7.016-30.65,17.448h35.283c2.588,0,4.686,2.098,4.686,4.686    s-2.098,4.686-4.686,4.686h-39.154c-0.689,2.749-1.063,5.623-1.063,8.582c0,3.058,0.393,6.026,1.129,8.858h39.088    c2.588,0,4.686,2.098,4.686,4.686s-2.098,4.686-4.686,4.686h-35.121c6.233,10.277,17.566,17.164,30.488,17.164    c8.045,0,15.27-2.251,20.342-6.34c2.017-1.622,4.965-1.307,6.59,0.709C387.688,381.491,387.37,384.44,385.355,386.065z"/><path d="M174.164,189.084c2.064-2.392,3.088-5.207,3.088-8.467c0-2.888-0.866-5.389-2.598-7.478    c-1.709-2.108-4.527-3.703-8.459-4.835v25.442C169.458,193.035,172.122,191.486,174.164,189.084z"/><path d="M161.704,278.131c64.267,0,116.551-52.029,116.551-115.98c0-63.952-52.284-115.981-116.551-115.981    c-64.264,0-116.547,52.029-116.547,115.981C45.156,226.102,97.439,278.131,161.704,278.131z M161.704,81.634    c44.596,0,80.878,36.119,80.878,80.516c0,44.4-36.282,80.522-80.878,80.522s-80.878-36.122-80.878-80.522    C80.825,117.753,117.107,81.634,161.704,81.634z"/><path d="M350.155,233.588c-64.346,0-116.695,52.094-116.695,116.125c0,64.027,52.349,116.118,116.695,116.118    c64.343,0,116.688-52.091,116.688-116.118C466.844,285.683,414.498,233.588,350.155,233.588z M350.155,430.229    c-44.597,0-80.878-36.119-80.878-80.516c0-44.4,36.281-80.522,80.878-80.522c44.595,0,80.876,36.122,80.876,80.522    C431.031,394.11,394.75,430.229,350.155,430.229z"/><path d="M318.863,108.739h85.12v67.024l-19.667-13.051c-2.157-1.431-5.065-0.842-6.494,1.313    c-1.432,2.156-0.844,5.064,1.313,6.495l26.859,17.824c0.004,0.002,0.008,0.003,0.01,0.006l0.041,0.026    c0.003,0.002,0.007,0.005,0.01,0.007l0.023,0.015c0.031,0.021,0.064,0.034,0.096,0.054c0.143,0.09,0.289,0.173,0.439,0.246    c0.057,0.027,0.111,0.054,0.168,0.079c0.042,0.019,0.084,0.037,0.126,0.054c0.097,0.039,0.192,0.071,0.29,0.104    c0.082,0.027,0.162,0.054,0.244,0.076c0.072,0.02,0.146,0.038,0.219,0.054c0.053,0.012,0.108,0.02,0.162,0.03    c0.078,0.014,0.154,0.032,0.233,0.042c0.185,0.024,0.372,0.039,0.56,0.04c0.016,0,0.033,0.004,0.049,0.004    c0.002,0,0.003,0,0.005,0s0.003,0,0.005,0c0.016,0,0.033-0.004,0.049-0.004c0.188-0.001,0.375-0.016,0.56-0.04    c0.079-0.01,0.155-0.028,0.233-0.042c0.054-0.01,0.107-0.019,0.162-0.03c0.072-0.017,0.146-0.034,0.219-0.054    c0.082-0.022,0.162-0.048,0.243-0.075c0.098-0.033,0.196-0.066,0.291-0.104c0.043-0.018,0.084-0.036,0.126-0.054    c0.057-0.024,0.111-0.05,0.166-0.078c0.153-0.074,0.302-0.158,0.446-0.251c0.03-0.018,0.062-0.031,0.091-0.05l0.023-0.015    c0.003-0.002,0.007-0.005,0.01-0.007l0.036-0.023c0.005-0.004,0.011-0.007,0.017-0.011l26.852-17.822    c2.156-1.431,2.744-4.338,1.313-6.495c-1.431-2.155-4.338-2.744-6.495-1.313l-19.661,13.05v-71.709    c0-2.588-2.098-4.686-4.686-4.686h-89.806c-2.588,0-4.686,2.098-4.686,4.686S316.275,108.739,318.863,108.739z"/><path d="M184.158,394.323H99.04v-67.021l19.662,13.049c0.797,0.529,1.697,0.782,2.587,0.782c1.517,0,3.006-0.736,3.907-2.096    c1.432-2.156,0.843-5.063-1.313-6.494l-26.89-17.847c-0.014-0.009-0.028-0.018-0.042-0.027c-0.086-0.058-0.181-0.096-0.271-0.147    c-0.173-0.1-0.343-0.204-0.53-0.28c-0.01-0.005-0.021-0.009-0.032-0.013c-0.108-0.044-0.221-0.064-0.331-0.101    c-0.007-0.002-0.015-0.004-0.022-0.007c-0.16-0.051-0.314-0.112-0.482-0.146c-0.011-0.002-0.022-0.002-0.034-0.005    c-0.136-0.026-0.273-0.028-0.411-0.042c-0.158-0.018-0.315-0.045-0.475-0.046c-0.003,0-0.005-0.001-0.009-0.001    c-0.005,0-0.011,0.002-0.018,0.002c-0.122,0.001-0.243,0.024-0.365,0.034c-0.177,0.015-0.354,0.021-0.528,0.055    c-0.009,0.002-0.018,0.002-0.026,0.004c-0.091,0.019-0.173,0.056-0.262,0.079c-0.036,0.011-0.071,0.022-0.106,0.032    c-0.159,0.046-0.319,0.081-0.474,0.144c-0.011,0.005-0.021,0.011-0.033,0.015c-0.089,0.038-0.168,0.093-0.255,0.136    c-0.181,0.089-0.364,0.173-0.534,0.285l-26.933,17.877c-2.156,1.431-2.744,4.338-1.313,6.494c0.902,1.36,2.391,2.096,3.908,2.096    c0.89,0,1.79-0.253,2.587-0.782l19.664-13.053v71.711c0,2.588,2.099,4.686,4.686,4.686h89.804c2.588,0,4.686-2.098,4.686-4.686    S186.747,394.323,184.158,394.323z"/></g></g><g id="Layer_1"/></svg>